<svg width="389" height="217" viewBox="0 0 389 217" fill="none" xmlns="http://www.w3.org/2000/svg">
<path d="M155.954 124.252C155.889 124.259 155.243 124.018 154.702 123.94C152.567 123.632 151.43 122.833 150.322 120.967V86.5528C150.879 84.3146 154.563 83.743 154.702 83.4242C155.022 82.6918 153.938 77.8162 155.797 78.5749C156.749 78.9635 155.535 82.4553 155.954 83.4242C156.133 83.8406 159.713 84.0856 160.334 87.1786C160.857 89.785 160.856 117.733 160.334 120.342C160.005 121.981 157.536 124.087 155.954 124.252Z" fill="#67A63E"/>
<path d="M155.954 124.253C156.753 149.289 155.098 175.187 156.579 200.121C156.609 200.622 156.771 203.371 157.518 203.406C156.833 204.637 156.662 203.63 156.266 202.937C156.493 208.02 155.862 213.123 155.641 218.267C155.63 218.524 155.016 218.391 155.015 218.423C155.255 208.034 155.862 196.509 154.702 186.199V123.94C155.243 124.018 155.889 124.259 155.954 124.253Z" fill="#3BAA2A"/>
<path d="M164.714 237.195C161.597 237.282 158.447 237.173 155.328 237.195C155.779 231.016 154.777 224.527 155.015 218.423C155.016 218.391 155.63 218.524 155.641 218.267C155.862 213.123 156.493 208.02 156.266 202.937C156.662 203.63 156.833 204.637 157.518 203.406C157.878 202.758 158.384 198.251 158.769 196.992C160.919 189.972 164.33 182.574 168.468 176.5C168.882 175.893 169.29 175.201 169.719 174.623C176.804 165.081 187.67 156.142 199.441 153.505C172.83 172.075 162.122 205.627 164.714 237.195Z" fill="#9BDA69"/>
<path d="M122.897 223.494C120.709 223.497 118.51 223.491 116.322 223.494C117.135 197.794 115.434 170.541 126.322 146.495C124.28 172.097 123.074 197.787 122.897 223.494Z" fill="#9CDB6C"/>
<path d="M96.8629 223.38C94.6864 223.372 92.4986 223.389 90.3221 223.38L91.4994 158.495L96.8629 223.38Z" fill="#9DDB6C"/>
<path d="M68.1548 149.498C68.113 149.555 66.9547 149.947 67.1547 150.498C65.5436 150.227 63.8179 149.896 62.9043 148.373C61.4934 146.02 60.21 138.995 58.6539 135.621C58.0051 134.215 57.169 132.724 56.4037 131.371C54.9718 128.84 49.3178 124.03 54.4035 121.745C54.4628 121.719 55.3386 121.496 55.4036 121.495C59.0687 121.473 63.7741 130.065 65.1545 133.121C66.0879 135.188 69.5577 144.577 69.6549 146.372C69.7605 148.319 68.9744 148.378 68.1548 149.498Z" fill="#6FC837"/>
<path d="M80.906 128.746C82.1819 128.988 84.1 130.229 84.4063 131.621C84.7403 133.139 84.7403 155.355 84.4063 156.873C84.0638 158.43 82.3244 159.288 80.906 159.498C80.4797 159.562 79.9571 159.753 79.9059 159.748C78.458 159.629 76.4478 157.887 76.1555 156.373C75.7392 154.216 75.7395 134.028 76.1555 131.871C76.5516 129.817 77.955 129.428 79.5309 128.996C79.7474 128.936 79.6304 128.499 79.6559 128.496C80.0134 128.448 79.8444 128.993 80.0309 128.996C80.534 129.003 80.8052 128.726 80.906 128.746Z" fill="#67A53E"/>
<path d="M68.1548 149.498C71.4443 166.378 72.2542 183.593 73.1553 200.752C72.2897 198.499 71.9401 196.511 71.6551 194.002C70.7058 185.647 70.7913 176.819 69.9049 168.374C69.2769 162.391 68.0333 156.442 67.1547 150.498C66.9547 149.947 68.113 149.555 68.1548 149.498Z" fill="#3BA62B"/>
<path d="M80.906 159.499C80.7312 176.741 81.1395 194.012 80.906 211.254C80.8625 214.47 80.4882 217.606 80.4059 220.754C80.2712 219.36 80.2542 217.876 79.9059 216.504V159.749C79.9572 159.753 80.4797 159.562 80.906 159.499Z" fill="#3EA42B"/>
<path d="M71.6551 194.002C71.9401 196.512 72.2897 198.499 73.1553 200.752C75.18 206.023 78.4758 210.87 79.9059 216.504C80.2542 217.876 80.2712 219.36 80.4059 220.754C80.3682 222.202 80.689 223.565 80.656 225.005C78.4125 224.983 76.1465 225.072 73.9053 225.005C72.4337 215.101 70 205.356 66.1546 196.127C65.6506 194.917 64.8082 192.931 63.9044 192.002C63.0601 188.802 62.2395 185.628 61.1541 182.501C63.6459 182.731 65.1438 185.42 66.9047 186.876L71.6551 194.002Z" fill="#D5EF9A"/>
<path d="M86.9065 225.005C84.8269 224.993 82.7357 225.025 80.656 225.005C80.689 223.565 80.3682 222.202 80.4059 220.754C80.4882 217.606 80.8625 214.47 80.906 211.253L83.9063 192.877C84.8249 190.397 85.0559 187.612 85.9065 185.126C86.0057 184.836 86.4178 183.095 86.9065 183.376V225.005Z" fill="#B5E880"/>
<path d="M45.9504 220.877C44.1486 220.927 42.3278 220.864 40.5244 220.877C40.7854 217.305 40.2059 213.553 40.3436 210.025C40.3443 210.006 40.699 210.083 40.7053 209.934C40.833 206.96 41.1982 204.011 41.067 201.072C41.2955 201.473 41.3946 202.055 41.7905 201.343C41.9988 200.969 42.2911 198.363 42.514 197.635C43.7569 193.577 45.7285 189.3 48.1208 185.789C48.3601 185.437 48.5962 185.038 48.8443 184.704C52.9397 179.187 59.2217 174.02 66.0267 172.495C50.6425 183.23 44.4523 202.627 45.9504 220.877Z" fill="#9BDA69"/>
<path d="M177.872 17.0771C177.732 17.0698 176.327 17.0658 176.247 17.0771L176.856 6.51337C178.741 6.01606 177.527 15.7672 177.872 17.0771Z" fill="#3BA22A"/>
<path d="M177.872 17.0773C180.879 17.2333 184.132 18.798 184.779 22.156C185.56 26.2036 185.574 67.3661 184.779 71.3181C184.046 74.9647 180.96 75.6249 177.872 75.9906C176.569 76.145 176.352 76.4062 176.247 76.3969C173.802 76.1746 170.336 74.4032 169.746 71.7244C166.937 58.9598 171.86 35.2449 169.746 21.3434C171.136 18.4502 173.237 17.4982 176.247 17.0773C176.327 17.0659 177.732 17.07 177.872 17.0773Z" fill="#37AD7D"/>
<path d="M177.872 75.9905V234.853C176.906 234.854 176.127 234.447 175.841 234.447L176.247 76.3968C176.352 76.4061 176.569 76.1449 177.872 75.9905Z" fill="#3DA62C"/>
<path d="M172.62 234.537C172.648 234.762 172.688 235.221 172.489 235.322C169.568 235.342 166.642 235.295 163.725 235.322C162.365 223.017 157.867 211.437 154.175 199.74C162.501 210.706 169.809 220.428 172.097 234.406C172.133 234.627 172.617 234.51 172.62 234.537Z" fill="#B6E882"/>
<path d="M72.9582 185.902C74.094 189.174 74.9527 192.496 75.8362 195.844C78.7806 207.001 80.8368 218.38 81.0688 229.987C81.3681 230.66 85.4132 230.353 86.3015 230.379C88.6467 230.449 91.0179 230.357 93.3655 230.379C95.5418 230.401 97.7301 230.367 99.9063 230.379C101.211 230.387 102.526 230.374 103.831 230.379C106.007 230.388 108.195 230.372 110.372 230.379C111.415 230.383 112.468 230.376 113.511 230.379C116.298 230.387 119.096 230.373 121.883 230.379C122.84 230.381 123.805 230.377 124.761 230.379C126.502 230.383 128.253 230.376 129.994 230.379C130.65 230.38 131.599 230.117 131.825 230.118C132.01 230.118 132.511 230.38 133.134 230.379C133.742 230.379 134.357 230.38 134.965 230.379C137.055 230.377 139.154 230.383 141.244 230.379C141.852 230.378 142.467 230.38 143.076 230.379C145.862 230.374 148.661 230.385 151.448 230.379C152.491 230.377 153.544 230.382 154.587 230.379C156.764 230.374 158.952 230.386 161.128 230.379C162.259 230.376 163.399 230.384 164.529 230.379C166.968 230.369 169.417 230.397 171.855 230.379C174.464 230.361 177.098 230.452 179.704 230.379C180.373 230.36 183.664 230.517 183.89 230.249C180.528 203.206 193.908 176.178 216.725 161.832C198.811 179.704 189.002 204.715 191.477 230.249C191.666 230.514 194.088 230.356 194.617 230.379C196.867 230.481 199.164 230.358 201.419 230.379C205.834 230.422 218.95 229.531 222.219 230.379C224.53 230.979 224.726 234.496 221.434 235.089H43.263C40.654 234.507 40.7843 230.955 43.0014 230.379C46.4206 229.492 60.227 230.422 64.8476 230.379C67.7654 230.352 70.6915 230.399 73.6123 230.379C73.8112 230.278 73.7714 229.819 73.7431 229.594C72.313 202.851 66.0287 175.002 52.5509 151.759C52.1721 151.105 49.5165 147.736 50.0654 147.442C60.2283 158.699 67.9694 171.529 72.9582 185.902Z" fill="#36AC7D"/>
<path d="M333.536 88.3789C333.447 88.3743 332.555 88.3717 332.504 88.3789L332.891 81.6695C334.088 81.3536 333.317 87.5469 333.536 88.3789Z" fill="#3BA22A"/>
<path d="M333.536 88.379C335.446 88.4781 337.512 89.4719 337.923 91.6047C338.419 94.1754 338.428 120.319 337.923 122.829C337.457 125.145 335.498 125.565 333.536 125.797C332.709 125.895 332.571 126.061 332.504 126.055C330.951 125.914 328.75 124.789 328.375 123.087C326.591 114.98 329.717 99.9179 328.375 91.0886C329.258 89.251 330.592 88.6464 332.504 88.379C332.555 88.3718 333.447 88.3744 333.536 88.379Z" fill="#37AD7D"/>
<path d="M333.536 125.797V226.696C332.922 226.697 332.428 226.438 332.246 226.438L332.504 126.055C332.571 126.061 332.709 125.895 333.536 125.797Z" fill="#3DA62C"/>
<path d="M330.2 226.495C330.218 226.638 330.244 226.929 330.117 226.993C328.262 227.006 326.404 226.976 324.55 226.993C323.687 219.178 320.83 211.823 318.485 204.394C323.773 211.359 328.415 217.534 329.868 226.412C329.891 226.552 330.198 226.478 330.2 226.495Z" fill="#B6E882"/>
<path d="M266.902 195.605C267.623 197.684 268.168 199.794 268.73 201.92C270.6 209.006 271.906 216.233 272.053 223.605C272.243 224.033 274.812 223.838 275.376 223.855C276.866 223.899 278.372 223.84 279.863 223.855C281.245 223.868 282.635 223.846 284.017 223.855C284.846 223.859 285.681 223.851 286.51 223.855C287.892 223.86 289.282 223.85 290.664 223.855C291.327 223.857 291.996 223.853 292.658 223.855C294.428 223.859 296.206 223.851 297.976 223.855C298.583 223.856 299.196 223.853 299.804 223.855C300.909 223.857 302.021 223.853 303.127 223.855C303.544 223.855 304.146 223.688 304.29 223.688C304.407 223.689 304.726 223.855 305.121 223.855C305.507 223.854 305.898 223.855 306.284 223.855C307.612 223.853 308.945 223.857 310.272 223.855C310.659 223.854 311.049 223.855 311.436 223.855C313.206 223.851 314.983 223.858 316.753 223.855C317.416 223.853 318.084 223.856 318.747 223.855C320.13 223.851 321.519 223.859 322.901 223.855C323.619 223.852 324.344 223.858 325.062 223.855C326.61 223.848 328.166 223.866 329.714 223.855C331.371 223.843 333.044 223.901 334.7 223.855C335.125 223.843 337.215 223.942 337.358 223.771C335.223 206.596 343.721 189.429 358.213 180.318C346.835 191.669 340.605 207.554 342.177 223.771C342.297 223.94 343.836 223.839 344.171 223.855C345.6 223.919 347.06 223.841 348.492 223.855C351.296 223.881 359.626 223.316 361.702 223.855C363.17 224.235 363.295 226.469 361.204 226.846H248.041C246.384 226.476 246.467 224.22 247.875 223.855C250.047 223.291 258.816 223.882 261.75 223.855C263.604 223.837 265.462 223.867 267.317 223.855C267.443 223.79 267.418 223.499 267.4 223.356C266.492 206.37 262.5 188.683 253.94 173.92C253.7 173.505 252.013 171.365 252.362 171.178C258.816 178.328 263.733 186.477 266.902 195.605Z" fill="#36AC7D"/>
<path d="M108.105 227.688C105.318 227.694 102.519 227.683 99.7323 227.688C98.1759 205.184 101.019 182.61 108.759 161.495L108.105 227.688Z" fill="#B4E781"/>
<path d="M143.026 177.11C144.164 180.395 145.024 183.731 145.91 187.092C148.86 198.295 150.921 209.719 151.153 221.373C151.453 222.048 155.507 221.74 156.397 221.767C158.747 221.837 161.124 221.744 163.476 221.767C165.657 221.788 167.85 221.754 170.031 221.767C171.338 221.774 172.656 221.761 173.964 221.767C176.145 221.776 178.337 221.759 180.518 221.767C181.564 221.77 182.619 221.764 183.665 221.767C186.458 221.774 189.262 221.76 192.055 221.767C193.013 221.769 193.98 221.765 194.939 221.767C196.683 221.77 198.438 221.764 200.183 221.767C200.84 221.768 201.791 221.504 202.018 221.504C202.203 221.504 202.705 221.767 203.329 221.767C203.938 221.766 204.555 221.767 205.164 221.767C207.258 221.764 209.363 221.77 211.457 221.767C212.066 221.766 212.682 221.768 213.292 221.767C216.085 221.762 218.889 221.772 221.682 221.767C222.728 221.765 223.782 221.769 224.828 221.767C227.009 221.761 229.202 221.773 231.383 221.767C232.516 221.763 233.658 221.771 234.791 221.767C237.235 221.756 239.69 221.784 242.133 221.767C244.747 221.748 247.386 221.84 249.998 221.767C250.669 221.748 253.967 221.905 254.193 221.635C250.824 194.483 264.233 167.347 287.098 152.943C269.146 170.887 259.316 195.999 261.797 221.635C261.986 221.902 264.413 221.743 264.943 221.767C267.197 221.869 269.5 221.745 271.76 221.767C276.184 221.809 289.327 220.915 292.604 221.767C294.92 222.369 295.116 225.9 291.817 226.495H113.267C110.653 225.911 110.783 222.344 113.005 221.767C116.431 220.876 130.267 221.809 134.898 221.767C137.822 221.74 140.754 221.787 143.681 221.767C143.88 221.665 143.84 221.204 143.812 220.979C142.379 194.127 136.081 166.166 122.575 142.829C122.195 142.173 119.534 138.79 120.084 138.495C130.268 149.798 138.026 162.679 143.026 177.11Z" fill="#36AC7D"/>
<path d="M240.354 219.262C238.264 219.265 236.164 219.259 234.075 219.262C234.851 193.239 233.226 165.644 243.624 141.296C241.674 167.22 240.522 193.232 240.354 219.262Z" fill="#9CDB6C"/>
<path d="M229.104 219.262C227.363 219.259 225.612 219.265 223.871 219.262L225.048 169.029C227.929 185.579 228.938 202.44 229.104 219.262Z" fill="#9CDB6B"/>
<path d="M365.925 220.494C364.393 220.497 362.854 220.492 361.322 220.494C361.891 202.471 360.7 183.359 368.322 166.495C366.893 184.45 366.049 202.466 365.925 220.494Z" fill="#9CDB6C"/>
<path d="M312.322 212.494C313.985 212.492 315.659 212.497 317.322 212.494L316.197 171.495C313.444 185.003 312.48 198.764 312.322 212.494Z" fill="#9CDB6B"/>
<path d="M284.544 219.205C282.368 219.211 280.18 219.199 278.004 219.205L279.181 178.913L284.544 219.205Z" fill="#D3EF98"/>
<path d="M170.774 220.122C168.597 220.129 166.41 220.117 164.233 220.122L165.41 179.831L170.774 220.122Z" fill="#D3EF98"/>
<path d="M361.615 227.462C359.438 227.469 357.25 227.457 355.074 227.462L356.251 187.171L361.615 227.462Z" fill="#D3EF98"/>
<path d="M257.72 109.702C259.314 110.001 261.71 111.531 262.093 113.247C262.51 115.119 262.51 142.509 262.093 144.381C261.665 146.3 259.492 147.358 257.72 147.617C257.188 147.695 256.535 147.931 256.471 147.925C254.662 147.779 252.151 145.631 251.786 143.764C251.266 141.105 251.266 116.215 251.786 113.555C252.281 111.023 254.034 110.544 256.002 110.011C256.273 109.937 256.127 109.398 256.159 109.394C256.605 109.335 256.394 110.007 256.627 110.011C257.256 110.019 257.594 109.679 257.72 109.702Z" fill="#67A73F"/>
<path d="M257.755 147.926C257.606 169.361 257.955 190.833 257.755 212.267C257.718 216.265 257.398 220.165 257.328 224.078C257.213 222.345 257.198 220.5 256.901 218.794V148.236C256.945 148.242 257.391 148.004 257.755 147.926Z" fill="#3EA42B"/>
<path d="M188.456 51.3803C188.638 51.3742 191.755 53.962 190.549 53.9966C189.967 54.0895 187.079 51.4253 188.456 51.3803Z" fill="#23AC71"/>
<path d="M193.689 51.3802C195.29 51.858 192.492 53.5311 192.119 54.5198C190.867 54.118 193.493 51.4064 193.689 51.3802Z" fill="#24AF72"/>
<path d="M191.073 54.5198C192.356 54.5614 189.192 57.9665 188.98 57.921C187.395 57.5817 190.589 54.8787 191.073 54.5198Z" fill="#2CAD6E"/>
<path d="M192.119 55.3048C192.67 55.2075 194.975 57.2147 194.212 57.6595C193.821 57.8874 190.982 55.4362 192.119 55.3048Z" fill="#26A76C"/>
<path d="M377.462 53.2152C377.644 53.2092 380.761 55.797 379.555 55.8315C378.973 55.9244 376.085 53.2602 377.462 53.2152Z" fill="#23AC71"/>
<path d="M382.695 53.2152C384.295 53.6929 381.498 55.3661 381.125 56.3548C379.873 55.9529 382.498 53.2414 382.695 53.2152Z" fill="#24AF72"/>
<path d="M380.078 56.3549C381.361 56.3965 378.198 59.8016 377.985 59.7561C376.4 59.4167 379.595 56.7138 380.078 56.3549Z" fill="#2CAD6E"/>
<path d="M381.125 57.1398C381.675 57.0424 383.981 59.0497 383.218 59.4945C382.827 59.7223 379.988 57.2711 381.125 57.1398Z" fill="#26A76C"/>
<path d="M12.2958 1.04783e-05C12.4773 -0.00600705 15.5941 2.58179 14.3888 2.61633C13.8062 2.70921 10.9185 0.0450112 12.2958 1.04783e-05Z" fill="#23AC71"/>
<path d="M17.5284 0C19.129 0.47774 16.3314 2.15088 15.9586 3.13958C14.7064 2.73772 17.3319 0.0261632 17.5284 0Z" fill="#24AF72"/>
<path d="M14.9121 3.13965C16.1948 3.18125 13.0315 6.58639 12.819 6.54086C11.234 6.20153 14.4283 3.49861 14.9121 3.13965Z" fill="#2CAD6E"/>
<path d="M15.9586 3.92457C16.5091 3.82724 18.8148 5.83448 18.0516 6.27925C17.6608 6.50713 14.8215 4.0559 15.9586 3.92457Z" fill="#26A76C"/>
<path d="M90.2836 108.265C90.4651 108.259 93.582 110.847 92.3766 110.882C91.794 110.975 88.9063 108.31 90.2836 108.265Z" fill="#23AC71"/>
<path d="M95.5162 108.265C97.1168 108.743 94.3192 110.416 93.9464 111.405C92.6942 111.003 95.3197 108.292 95.5162 108.265Z" fill="#24AF72"/>
<path d="M92.8999 111.405C94.1827 111.447 91.0193 114.852 90.8068 114.806C89.2219 114.467 92.4161 111.764 92.8999 111.405Z" fill="#2CAD6E"/>
<path d="M93.9464 112.19C94.4969 112.092 96.8026 114.1 96.0394 114.545C95.6486 114.772 92.8093 112.321 93.9464 112.19Z" fill="#26A76C"/>
<path d="M290.299 114.688C290.481 114.682 293.598 117.27 292.392 117.304C291.81 117.397 288.922 114.733 290.299 114.688Z" fill="#23AC71"/>
<path d="M295.532 114.688C297.133 115.166 294.335 116.839 293.962 117.828C292.71 117.426 295.335 114.714 295.532 114.688Z" fill="#24AF72"/>
<path d="M292.916 117.828C294.198 117.869 291.035 121.274 290.823 121.229C289.238 120.889 292.432 118.186 292.916 117.828Z" fill="#2CAD6E"/>
<path d="M293.962 118.613C294.513 118.515 296.818 120.522 296.055 120.967C295.664 121.195 292.825 118.744 293.962 118.613Z" fill="#26A76C"/>
<path d="M184.155 222.034C181.494 222.028 178.822 222.041 176.161 222.034L176.535 128.451C184.157 158.931 184.998 190.635 184.155 222.034Z" fill="#B5E781"/>
<rect y="211.026" width="388.104" height="11.9275" rx="5.96377" fill="#36AC7D"/>
<path d="M291.374 211.158C288.587 211.164 285.788 211.153 283.001 211.158C281.445 188.655 284.288 166.081 292.028 144.966L291.374 211.158Z" fill="#B4E781"/>
<path d="M276.585 166.671C276.531 166.67 275.588 166.431 275.539 166.409C274.233 165.843 273.102 163.821 273.184 162.354C273.43 157.945 281.172 140.333 285.088 138.153C285.593 137.872 286.881 138.051 287.181 137.891C287.833 137.545 290.07 133.72 290.844 133.967C292.378 134.456 288.412 137.79 288.359 138.284C288.301 138.814 289.754 139.663 289.928 140.377C290.57 143.01 285.759 148.954 284.434 151.889C282.876 155.339 281.676 162.234 280.248 164.709C279.613 165.809 277.819 166.685 276.585 166.671Z" fill="#639444"/>
<path d="M276.585 166.671C274.368 181.105 273.558 195.737 273.707 210.363C273.348 210.847 273.007 211.425 272.661 211.933C272.072 196.723 273.097 181.378 275.539 166.409C275.588 166.431 276.531 166.67 276.585 166.671Z" fill="#639444"/>
<path d="M192.403 210.796C190.663 210.794 188.911 210.8 187.171 210.796L188.348 160.563C191.229 177.113 192.238 193.974 192.403 210.796Z" fill="#9CDB6B"/>
<path d="M303.582 210.494C301.832 210.497 300.073 210.492 298.322 210.494C298.973 190.468 297.611 169.232 306.322 150.495C304.689 170.445 303.724 190.463 303.582 210.494Z" fill="#9CDB6C"/>
</svg>
